<svg width="1284" height="452" viewBox="0 0 1284 452" fill="none" xmlns="http://www.w3.org/2000/svg">
<g clip-path="url(#clip0_80616_62)">
<rect width="1284" height="452" fill="#4243ed"/>
<g filter="url(#filter0_d_80616_62)">
<path d="M394.832 191.756C394.074 185.032 390.949 179.824 385.457 176.131C379.965 172.39 373.052 170.52 364.718 170.52C358.752 170.52 353.592 171.467 349.235 173.361C344.879 175.207 341.494 177.764 339.079 181.031C336.712 184.251 335.528 187.92 335.528 192.04C335.528 195.496 336.333 198.479 337.943 200.989C339.6 203.498 341.754 205.605 344.406 207.31C347.105 208.967 349.993 210.364 353.071 211.5C356.148 212.589 359.108 213.489 361.949 214.199L376.153 217.892C380.793 219.028 385.552 220.567 390.429 222.509C395.306 224.45 399.827 227.007 403.994 230.179C408.161 233.351 411.522 237.281 414.079 241.969C416.683 246.656 417.985 252.267 417.985 258.801C417.985 267.04 415.855 274.355 411.593 280.747C407.379 287.139 401.248 292.182 393.199 295.875C385.197 299.568 375.514 301.415 364.15 301.415C353.26 301.415 343.838 299.687 335.883 296.23C327.929 292.774 321.702 287.873 317.204 281.528C312.706 275.136 310.22 267.561 309.747 258.801H331.764C332.19 264.057 333.895 268.437 336.877 271.94C339.908 275.397 343.767 277.977 348.454 279.682C353.189 281.339 358.374 282.168 364.008 282.168C370.211 282.168 375.727 281.197 380.556 279.256C385.433 277.267 389.269 274.521 392.062 271.017C394.856 267.466 396.252 263.323 396.252 258.588C396.252 254.279 395.021 250.752 392.559 248.006C390.145 245.259 386.854 242.987 382.687 241.188C378.568 239.388 373.904 237.802 368.696 236.429L351.508 231.741C339.86 228.569 330.627 223.905 323.809 217.75C317.038 211.595 313.653 203.451 313.653 193.318C313.653 184.937 315.926 177.622 320.471 171.372C325.017 165.122 331.172 160.269 338.937 156.812C346.702 153.309 355.462 151.557 365.216 151.557C375.064 151.557 383.752 153.285 391.281 156.741C398.857 160.198 404.823 164.956 409.179 171.017C413.535 177.03 415.807 183.943 415.997 191.756H394.832ZM463.742 234.227V299H442.506V153.545H463.458V207.665H464.807C467.364 201.794 471.27 197.13 476.526 193.673C481.782 190.217 488.647 188.489 497.123 188.489C504.604 188.489 511.138 190.027 516.725 193.105C522.359 196.183 526.715 200.776 529.793 206.884C532.918 212.944 534.48 220.52 534.48 229.611V299H513.245V232.168C513.245 224.166 511.185 217.963 507.066 213.56C502.946 209.109 497.217 206.884 489.878 206.884C484.859 206.884 480.361 207.949 476.384 210.08C472.454 212.21 469.353 215.335 467.08 219.455C464.855 223.527 463.742 228.451 463.742 234.227ZM562.819 299V189.909H584.054V299H562.819ZM573.543 173.077C569.85 173.077 566.677 171.846 564.026 169.384C561.422 166.874 560.12 163.891 560.12 160.435C560.12 156.931 561.422 153.948 564.026 151.486C566.677 148.976 569.85 147.722 573.543 147.722C577.236 147.722 580.385 148.976 582.989 151.486C585.641 153.948 586.966 156.931 586.966 160.435C586.966 163.891 585.641 166.874 582.989 169.384C580.385 171.846 577.236 173.077 573.543 173.077ZM664.541 189.909V206.955H602.893V189.909H664.541ZM619.797 299V177.267C619.797 170.449 621.288 164.791 624.271 160.293C627.254 155.747 631.208 152.362 636.132 150.136C641.056 147.864 646.406 146.727 652.183 146.727C656.444 146.727 660.09 147.082 663.12 147.793C666.151 148.455 668.4 149.071 669.868 149.639L664.896 166.827C663.902 166.543 662.623 166.211 661.061 165.832C659.498 165.406 657.604 165.193 655.379 165.193C650.218 165.193 646.525 166.472 644.299 169.028C642.121 171.585 641.032 175.278 641.032 180.108V299H619.797ZM737.375 189.909V206.955H677.787V189.909H737.375ZM693.767 163.773H715.002V266.969C715.002 271.088 715.618 274.189 716.849 276.273C718.08 278.309 719.666 279.705 721.608 280.463C723.596 281.173 725.751 281.528 728.071 281.528C729.775 281.528 731.267 281.41 732.545 281.173C733.824 280.937 734.818 280.747 735.528 280.605L739.363 298.148C738.132 298.621 736.38 299.095 734.108 299.568C731.835 300.089 728.994 300.373 725.585 300.42C719.998 300.515 714.789 299.521 709.96 297.438C705.13 295.354 701.224 292.134 698.241 287.778C695.258 283.422 693.767 277.954 693.767 271.372V163.773ZM837.446 153.545V299H815.5V153.545H837.446ZM918.625 189.909V206.955H859.037V189.909H918.625ZM875.017 163.773H896.252V266.969C896.252 271.088 896.868 274.189 898.099 276.273C899.33 278.309 900.916 279.705 902.858 280.463C904.846 281.173 907.001 281.528 909.321 281.528C911.025 281.528 912.517 281.41 913.795 281.173C915.074 280.937 916.068 280.747 916.778 280.605L920.613 298.148C919.382 298.621 917.63 299.095 915.358 299.568C913.085 300.089 910.244 300.373 906.835 300.42C901.248 300.515 896.039 299.521 891.21 297.438C886.38 295.354 882.474 292.134 879.491 287.778C876.508 283.422 875.017 277.954 875.017 271.372V163.773ZM956.107 300.349C952.224 300.349 948.886 298.976 946.093 296.23C943.299 293.437 941.902 290.075 941.902 286.145C941.902 282.262 943.299 278.948 946.093 276.202C948.886 273.408 952.224 272.011 956.107 272.011C959.989 272.011 963.328 273.408 966.121 276.202C968.915 278.948 970.311 282.262 970.311 286.145C970.311 288.749 969.649 291.14 968.323 293.318C967.044 295.449 965.34 297.153 963.209 298.432C961.078 299.71 958.711 300.349 956.107 300.349Z" fill="#fff"/>
</g>
</g>
<defs>
<filter id="filter0_d_80616_62" x="307.981" y="146.727" width="664.096" height="158.219" filterUnits="userSpaceOnUse" color-interpolation-filters="sRGB">
<feFlood flood-opacity="0" result="BackgroundImageFix"/>
<feColorMatrix in="SourceAlpha" type="matrix" values="0 0 0 0 0 0 0 0 0 0 0 0 0 0 0 0 0 0 127 0" result="hardAlpha"/>
<feOffset dy="1.76562"/>
<feGaussianBlur stdDeviation="0.882812"/>
<feComposite in2="hardAlpha" operator="out"/>
<feColorMatrix type="matrix" values="0 0 0 0 0 0 0 0 0 0 0 0 0 0 0 0 0 0 0.25 0"/>
<feBlend mode="normal" in2="BackgroundImageFix" result="effect1_dropShadow_80616_62"/>
<feBlend mode="normal" in="SourceGraphic" in2="effect1_dropShadow_80616_62" result="shape"/>
</filter>
<clipPath id="clip0_80616_62">
<rect width="1284" height="452" fill="white"/>
</clipPath>
</defs>
</svg>
